<svg width="100" height="100" viewBox="0 0 100 100" fill="none" xmlns="http://www.w3.org/2000/svg">
<path d="M50.4344 64.3145C50.4344 66.4785 50.4344 68.6425 50.4344 70.7605C50.9869 71.4511 52.8746 73.5691 56.0056 74.2137C58.7221 74.7662 60.8861 73.8454 61.9911 73.3849C64.6616 72.2799 66.2271 70.5303 66.8717 69.6555V42.3981C66.8717 33.3276 59.5048 25.9608 50.4344 25.9608C41.3639 25.9608 33.9971 33.3276 33.9971 42.3981V69.7015C34.6417 70.5303 36.2071 72.326 38.8776 73.431C39.9826 73.8914 42.1467 74.7662 44.8632 74.2598C47.9941 73.6612 49.8819 71.5432 50.4344 70.8065C50.4344 68.5965 50.4344 66.4785 50.4344 64.3145Z" stroke="#6504B5" stroke-width="2.88462" stroke-miterlimit="10"/>
<path d="M50.4348 65.0053C51.8589 65.0053 53.0133 63.8509 53.0133 62.4269C53.0133 61.0028 51.8589 59.8484 50.4348 59.8484C49.0108 59.8484 47.8564 61.0028 47.8564 62.4269C47.8564 63.8509 49.0108 65.0053 50.4348 65.0053Z" fill="#6504B5"/>
<path d="M56.927 50.8695C58.3511 50.8695 59.5054 49.7151 59.5054 48.2911C59.5054 46.8671 58.3511 45.7127 56.927 45.7127C55.503 45.7127 54.3486 46.8671 54.3486 48.2911C54.3486 49.7151 55.503 50.8695 56.927 50.8695Z" fill="#6504B5"/>
<path d="M39.7986 29.4606C38.6015 29.0002 36.1612 28.5398 33.8591 29.4606C31.8332 30.2894 30.6821 31.8088 30.0375 32.6836C24.5124 40.3728 19.77 48.6605 16.0405 57.3626C15.6722 58.1914 14.8434 60.1712 14.5671 62.8417C14.429 64.177 14.2909 65.328 14.6592 66.7093C15.534 70.3467 18.6189 72.2805 19.2175 72.6489C22.5325 74.7208 25.8937 74.3064 26.9066 74.1222C29.9915 73.6158 33.2145 70.3007 33.9972 69.61" stroke="#6504B5" stroke-width="2.88462" stroke-miterlimit="10"/>
<path d="M61.1621 29.4606C62.3592 29.0002 64.7995 28.5398 67.1016 29.4606C69.1275 30.2894 70.2786 31.8088 70.9232 32.6836C76.4483 40.3728 81.1908 48.6605 84.9202 57.3626C85.2886 58.1914 86.1174 60.1712 86.3936 62.8417C86.5317 64.177 86.6699 65.328 86.3015 66.7093C85.4267 70.3467 82.3418 72.2805 81.7433 72.6489C78.4282 74.7208 75.0671 74.3064 74.0541 74.1222C70.9692 73.6158 67.7462 70.3007 66.9635 69.61" stroke="#6504B5" stroke-width="2.88462" stroke-miterlimit="10"/>
</svg>
