<svg width="100" height="100" viewBox="0 0 100 100" fill="none" xmlns="http://www.w3.org/2000/svg">
<path fill-rule="evenodd" clip-rule="evenodd" d="M79.8931 38.0345C79.8931 39.0072 79.1112 39.7967 78.1478 39.7967H68.2574V49.7822C68.2574 50.7549 67.4754 51.5443 66.512 51.5443C65.5486 51.5443 64.7666 50.7549 64.7666 49.7822V39.7967H54.8762C53.9128 39.7967 53.1309 39.0072 53.1309 38.0345C53.1309 37.0618 53.9128 36.2724 54.8762 36.2724H64.7666V26.2869C64.7666 25.3142 65.5486 24.5247 66.512 24.5247C67.4754 24.5247 68.2574 25.3142 68.2574 26.2869V36.2724H78.1478C79.1112 36.2724 79.8931 37.0618 79.8931 38.0345ZM83.9911 53.7102L49.9984 88.1261L16.008 53.7102C7.9467 44.5494 8.34465 30.612 16.9225 21.9469C21.2534 17.5768 27.0061 15.1732 33.1265 15.1732C37.9926 15.1732 43.1449 16.7615 47.3501 20.0649L32.5866 35.3651C31.9373 36.037 31.9443 37.1108 32.6029 37.7757L32.6076 37.7827C32.938 38.114 33.3732 38.2808 33.806 38.2808C34.2436 38.2808 34.6764 38.114 35.0092 37.7804L51.539 21.0917C55.7581 17.276 61.2013 15.1732 66.8703 15.1732C72.9907 15.1732 78.7457 17.5768 83.0742 21.9469C91.6545 30.6096 92.0547 44.5494 83.9911 53.7102ZM85.5433 19.4568C80.5562 14.4194 73.9262 11.6493 66.8702 11.6493C60.694 11.6493 54.7434 13.8155 50.003 17.7768C49.8518 17.5959 49.6819 17.4291 49.4934 17.2811C44.8623 13.6487 39.0514 11.6493 33.1265 11.6493C26.0729 11.6493 19.4428 14.4194 14.4557 19.4568C4.57929 29.4305 4.11386 45.5037 13.3992 56.0531C13.4434 56.1024 13.49 56.1517 13.5365 56.1987L47.5269 90.617C48.1832 91.2796 49.0722 91.6508 49.9984 91.6508C50.9269 91.6508 51.8182 91.2796 52.4721 90.617L86.4626 56.1964C86.5114 56.1517 86.5556 56.1 86.6022 56.0507C95.8852 45.5037 95.4198 29.4282 85.5433 19.4568Z" fill="#6504B5"/>
</svg>
