<svg width="100" height="100" viewBox="0 0 100 100" fill="none" xmlns="http://www.w3.org/2000/svg">
<path d="M87.7432 32.0595L50.5844 13.7243C50.2199 13.5467 49.7951 13.5467 49.4306 13.7243L12.256 32.0595C11.951 32.2041 11.7168 32.467 11.6066 32.7886C11.4965 33.1101 11.5198 33.463 11.6712 33.7669C12.0011 34.4021 12.7718 34.6567 13.4098 34.3414L49.9996 16.2934L86.5894 34.3414C86.7722 34.4283 86.9722 34.472 87.1742 34.4691C87.6586 34.4711 88.1036 34.2002 88.3281 33.7669C88.4794 33.463 88.5027 33.1101 88.3926 32.7886C88.2825 32.467 88.0483 32.2041 87.7432 32.0595Z" fill="#6504B5"/>
<path d="M75.9681 71.8575C74.9725 71.402 73.8427 71.345 72.807 71.6979L59.1194 74.8894C59.2375 73.7159 58.9224 72.5396 58.2343 71.5862C57.474 70.5469 56.3379 69.853 55.0732 69.6554L43.0136 67.0224H42.8555C40.128 66.2648 37.2089 66.7424 34.8579 68.3309C32.9138 69.6554 23.3515 75.9107 23.2408 75.9746C22.956 76.1574 22.7566 76.4489 22.6881 76.7826C22.6196 77.1163 22.6879 77.4638 22.8773 77.7458C23.1188 78.1057 23.5216 78.3209 23.9521 78.3203C24.204 78.3215 24.4509 78.2495 24.6633 78.1129C25.0585 77.8575 34.3679 71.7299 36.312 70.4373C38.1267 69.211 40.3964 68.8879 42.4762 69.5596H42.5868L54.5674 72.1767C55.1974 72.2543 55.7684 72.5887 56.148 73.1022C56.5111 73.5965 56.6594 74.2186 56.5589 74.8256C56.3411 76.0841 55.1717 76.9395 53.9194 76.7565L46.0166 75.1607C45.679 75.0745 45.3211 75.1291 45.0238 75.3122C44.7265 75.4953 44.5146 75.7915 44.4361 76.1341C44.3663 76.4687 44.4325 76.8176 44.6196 77.1026C44.8068 77.3875 45.0994 77.5848 45.4318 77.6501L53.3346 79.2458C53.5976 79.2673 53.8619 79.2673 54.1249 79.2458C55.4429 79.2396 56.7048 78.7059 57.6337 77.7618L73.4392 74.0597H73.5815C73.9924 73.8936 74.4508 73.8936 74.8617 74.0597C75.2696 74.2363 75.585 74.578 75.731 75.0011C75.9309 75.4208 75.9392 75.9076 75.7539 76.3339C75.5686 76.7603 75.2081 77.0836 74.7669 77.2192L57.8076 83.315C56.9731 83.6654 56.0412 83.6994 55.1838 83.4108L40.9589 80.4107C40.6581 80.3473 40.3449 80.3925 40.0737 80.5384L30.2585 85.7246C29.9603 85.8806 29.7369 86.1513 29.6387 86.4756C29.5406 86.7998 29.576 87.1504 29.7369 87.448C30.0838 88.0745 30.8618 88.308 31.4913 87.9746L40.9747 82.9959L54.7255 85.9001C56.0808 86.298 57.5298 86.2192 58.8349 85.6767L75.6836 79.6129C77.2892 79.049 78.3877 77.5484 78.4506 75.8333C78.5135 74.1182 77.528 72.5398 75.9681 71.8575Z" fill="#6504B5"/>
<path fill-rule="evenodd" clip-rule="evenodd" d="M33.6725 43.9159C33.4819 46.5447 35.432 48.8344 38.0348 49.0383C40.6124 48.8016 42.5258 46.5218 42.3339 43.9159C42.5245 41.2871 40.5745 38.9974 37.9716 38.7935C35.3941 39.0302 33.4807 41.31 33.6725 43.9159ZM40.2002 43.9159C40.3573 45.3245 39.4138 46.6177 38.0348 46.884C36.6303 46.6471 35.6528 45.3452 35.8062 43.9159C35.6501 42.5022 36.602 41.2068 37.9874 40.9478C39.3664 41.2141 40.3099 42.5073 40.1528 43.9159H40.2002Z" fill="#6504B5"/>
<path fill-rule="evenodd" clip-rule="evenodd" d="M66.3742 43.9159C66.5647 46.5447 64.6147 48.8344 62.0118 49.0383C59.4153 48.8262 57.4745 46.5389 57.6653 43.9159C57.4745 41.2929 59.4153 39.0056 62.0118 38.7935C64.6147 38.9974 66.5647 41.2871 66.3742 43.9159ZM64.193 43.9159C64.358 42.4964 63.404 41.1911 62.0118 40.9319C60.6261 41.1984 59.6805 42.5016 59.8465 43.9159C59.6903 45.3296 60.6423 46.625 62.0276 46.884C63.4066 46.6177 64.3501 45.3245 64.193 43.9159Z" fill="#6504B5"/>
<path fill-rule="evenodd" clip-rule="evenodd" d="M54.8993 30.4797C52.2965 30.6835 50.3464 32.9733 50.537 35.602C50.3464 38.2308 52.2965 40.5206 54.8993 40.7244C57.5022 40.5206 59.4522 38.2308 59.2617 35.602C59.4522 32.9733 57.5022 30.6835 54.8993 30.4797ZM54.8993 38.5861C53.5203 38.3198 52.5769 37.0266 52.734 35.618C52.5769 34.2094 53.5203 32.9162 54.8993 32.6499C56.2783 32.9162 57.2218 34.2094 57.0647 35.618C57.2218 37.0266 56.2783 38.3198 54.8993 38.5861Z" fill="#6504B5"/>
<path fill-rule="evenodd" clip-rule="evenodd" d="M40.7376 35.602C40.547 32.9733 42.497 30.6835 45.0999 30.4797C47.7091 30.6752 49.6684 32.9675 49.478 35.602C49.6684 38.2366 47.7091 40.5289 45.0999 40.7244C42.497 40.5206 40.547 38.2308 40.7376 35.602ZM42.9345 35.618C42.7774 37.0266 43.7209 38.3198 45.0999 38.5861C46.4789 38.3198 47.4224 37.0266 47.2653 35.618C47.4224 34.2094 46.4789 32.9162 45.0999 32.6499C43.7209 32.9162 42.7774 34.2094 42.9345 35.618Z" fill="#6504B5"/>
<path fill-rule="evenodd" clip-rule="evenodd" d="M44.3412 44.7776L40.1686 51.8947C39.8758 52.3994 39.6374 52.9344 39.4573 53.4904C39.1796 54.196 39.0401 54.9493 39.0464 55.7085C39.1195 58.9075 41.6481 61.4954 44.8154 61.6128H45.1157C45.9116 61.6175 46.7007 61.4657 47.4391 61.166L48.1346 60.9426C48.731 60.7094 49.3608 60.5747 49.9996 60.5436C50.6386 60.5741 51.2684 60.7089 51.8647 60.9426L52.6391 61.1341C53.4356 61.3768 54.2582 61.5215 55.089 61.5649H55.168C58.3438 61.4389 60.8726 58.8368 60.9371 55.6287C60.9169 54.8995 60.7836 54.1779 60.5419 53.4904C60.3523 52.9356 60.1088 52.401 59.8149 51.8947L55.6422 44.7617C54.5854 42.537 52.4224 41.0608 49.9838 40.8999C47.5476 41.0695 45.391 42.5515 44.3412 44.7776ZM53.8246 45.8627L57.9972 52.9957C58.2186 53.3706 58.4038 53.766 58.5504 54.1766C58.7122 54.6441 58.8028 55.1337 58.8191 55.6287C58.7724 57.6548 57.1883 59.3028 55.1838 59.4107C54.5461 59.3737 53.9148 59.2612 53.303 59.0755L52.6233 58.8681C51.7886 58.5215 50.9012 58.3218 49.9996 58.2777C49.1293 58.3052 48.2695 58.4777 47.4549 58.7883L46.7753 58.9958H46.6489C46.1486 59.2065 45.6103 59.3098 45.0683 59.299H44.926C42.9028 59.2241 41.2845 57.5763 41.2276 55.533C41.2595 55.063 41.3774 54.6032 41.5753 54.1766C41.7192 53.7649 41.9046 53.3692 42.1285 52.9957L46.3011 45.8627C46.987 44.3361 48.4139 43.2828 50.0628 43.0861C51.6848 43.3006 53.0827 44.344 53.7613 45.8468L53.8246 45.8627Z" fill="#6504B5"/>
</svg>
